<svg width="229" height="250" viewBox="0 0 229 250" fill="none" xmlns="http://www.w3.org/2000/svg">
<path d="M62.1445 29.3281L87.3398 54.5234C90.4219 52.1406 93.8203 50.1484 97.4688 48.6367L70.1523 21.3203L62.1445 29.3281Z" fill="#14FF46"/>
<path d="M108.805 10H97.4805V48.6328C101.043 47.1562 104.844 46.1367 108.805 45.6328V10Z" fill="#14FF46"/>
<path d="M79.3477 62.5195L54.1523 37.3242L46.1406 45.3281L73.457 72.6484C74.9727 68.9961 76.9609 65.5977 79.3477 62.5195Z" fill="#14FF46"/>
<path d="M70.457 95.2891H34.8242V106.613H73.457C71.9805 103.051 70.9609 99.25 70.457 95.2891Z" fill="#14FF46"/>
<path d="M155.453 72.6484L182.773 45.3281L174.766 37.3242L149.566 62.5195C151.953 65.5977 153.941 68.9961 155.453 72.6484Z" fill="#14FF46"/>
<path d="M131.438 10H120.109V45.6328C124.07 46.1367 127.871 47.1562 131.438 48.6328V10Z" fill="#14FF46"/>
<path d="M166.77 29.3281L158.762 21.3203L131.445 48.6367C135.094 50.1484 138.492 52.1406 141.574 54.5234L166.77 29.3281Z" fill="#14FF46"/>
<path d="M73.457 72.6562H34.8242V83.9805H70.457C70.9609 80.0195 71.9766 76.2188 73.457 72.6562Z" fill="#14FF46"/>
<path d="M155.457 106.613H194.09V95.2891H158.457C157.953 99.25 156.934 103.051 155.457 106.613Z" fill="#14FF46"/>
<path d="M149.566 116.75L174.766 141.949L182.773 133.938L155.453 106.621C153.941 110.27 151.953 113.668 149.566 116.75Z" fill="#14FF46"/>
<path d="M131.445 130.633L158.762 157.949L166.77 149.941L141.574 124.746C138.492 127.129 135.094 129.117 131.445 130.633Z" fill="#14FF46"/>
<path d="M155.457 72.6562C156.934 76.2188 157.953 80.0195 158.457 83.9805H194.09V72.6562H155.457Z" fill="#14FF46"/>
<path d="M73.4609 106.621L46.1406 133.938L54.1523 141.945L79.3477 116.75C76.9648 113.668 74.9727 110.27 73.4609 106.621Z" fill="#14FF46"/>
<path d="M120.109 169.27H131.438V130.637C127.871 132.113 124.07 133.133 120.109 133.637V169.27Z" fill="#14FF46"/>
<path d="M62.1445 149.941L70.1523 157.949L97.4688 130.633C93.8203 129.117 90.4219 127.129 87.3398 124.746L62.1445 149.941Z" fill="#14FF46"/>
<path d="M135.449 89.6328C135.449 99.2422 128.957 107.359 120.129 109.84V121.441C135.254 118.75 146.773 105.52 146.773 89.6328C146.773 71.8164 132.277 57.3164 114.457 57.3164C109.664 57.3164 105.051 58.3438 100.75 60.3594C100.75 60.3594 99.2031 61.0547 97.4805 62.1328V169.27H108.805V69.4062C110.625 68.8984 112.52 68.6445 114.457 68.6445C126.031 68.6445 135.449 78.0586 135.449 89.6328Z" fill="#14FF46"/>
<path d="M51.3594 203.742C48.1953 203.742 45.0859 205.207 44.2188 208.371V203.742H38.3867V229.379H44.4727V216.004C44.4727 211.906 46.5664 209.828 50.6992 209.828H53.3086V203.742H51.3594Z" fill="white"/>
<path d="M126.113 203.742C122.949 203.742 119.84 205.207 118.973 208.371V203.742H113.141V229.379H119.227V216.004C119.227 211.906 121.32 209.828 125.453 209.828H128.062V203.742H126.113Z" fill="white"/>
<path d="M68.2695 203.234C60.6836 203.234 54.7422 209.09 54.7422 216.562C54.7422 224.035 60.6836 229.887 68.2695 229.887C75.8281 229.887 81.7461 224.035 81.7461 216.562C81.7461 209.09 75.8281 203.234 68.2695 203.234ZM68.2695 224.16C63.957 224.16 60.8242 220.965 60.8242 216.562C60.8242 212.16 63.957 208.965 68.2695 208.965C72.5547 208.965 75.6641 212.16 75.6641 216.562C75.6641 220.965 72.5547 224.16 68.2695 224.16Z" fill="white"/>
<path d="M104.125 223.07C106.621 221.004 108.105 217.895 108.105 214.684C108.105 212.41 107.441 210.227 106.188 208.359L109.922 204.469L105.992 200.598L102.199 204.75C100.414 203.742 98.2734 203.184 96.1484 203.184C89.4727 203.184 84.2461 208.281 84.2461 214.785C84.2461 220.773 88.3281 225.078 94.9062 226.023L96.1719 226.176C100.527 226.75 102.223 227.883 102.223 230.223C102.223 232.754 100.105 234.266 96.5547 234.266C93.0195 234.266 91.0039 232.949 90.0977 229.379H83.9883C84.8164 236.57 90.2344 239.789 96.6562 239.789C103.715 239.789 108.461 235.984 108.461 230.324C108.461 227.133 106.926 224.57 104.125 223.07ZM96.1484 208.914C99.4961 208.914 102.02 211.414 102.02 214.734C102.02 218.137 99.5742 220.605 96.1992 220.605C92.7969 220.605 90.3281 218.176 90.3281 214.836C90.3281 211.402 92.7773 208.914 96.1484 208.914Z" fill="white"/>
<path d="M171.602 214.461L169.266 214.055C165.672 213.457 164.574 212.762 164.574 211.078C164.574 208.996 166.664 208.254 168.617 208.254C171.441 208.254 172.941 210.02 173.172 211.766L173.195 211.961H179.309L179.305 211.73C179.141 206.887 174.57 203.234 168.668 203.234C162.734 203.234 158.594 206.461 158.594 211.078C158.594 215.422 160.973 217.687 166.547 218.66L168.887 219.066C172.441 219.652 173.523 220.348 173.523 222.047C173.523 223.812 171.879 224.871 169.125 224.871C166.324 224.871 164.449 223.5 164.117 221.199L164.086 221.012H157.969L157.984 221.25C158.309 226.332 162.891 229.887 169.125 229.887C175.395 229.887 179.605 226.738 179.605 222.047C179.605 217.766 177.137 215.426 171.602 214.461Z" fill="white"/>
<path d="M195.531 203.234C187.945 203.234 182.004 209.09 182.004 216.562C182.004 224.035 187.945 229.887 195.531 229.887C203.09 229.887 209.012 224.035 209.012 216.562C209.012 209.09 203.09 203.234 195.531 203.234ZM195.531 224.16C191.219 224.16 188.086 220.965 188.086 216.562C188.086 212.16 191.219 208.965 195.531 208.965C199.816 208.965 202.926 212.16 202.926 216.562C202.926 220.965 199.816 224.16 195.531 224.16Z" fill="white"/>
<path d="M212.828 229.379H218.914V193.891H212.828V229.379Z" fill="white"/>
<path d="M22.8164 193.891H10V229.379H16.0859V199.977H22.4609C26.1797 199.977 28.4844 202.508 28.4844 206.191C28.4844 209.875 26.1797 212.43 22.4609 212.43H18.1133V218.516H22.8164C29.8867 218.516 34.8242 213.258 34.8242 206.191C34.8242 199.121 29.8867 193.891 22.8164 193.891Z" fill="white"/>
<path d="M149.051 221.012C147.867 223.211 145.547 224.516 142.77 224.516C138.949 224.516 136.273 222.277 135.57 218.512H155.195L155.227 218.324C155.332 217.695 155.332 217.012 155.332 216.41C155.332 208.777 149.941 203.234 142.516 203.234C135.211 203.234 129.492 209.09 129.492 216.562C129.492 224.035 135.324 229.887 142.77 229.887C148.465 229.887 153.387 226.406 155.359 221.012H149.051ZM142.465 208.559C145.973 208.559 148.559 210.664 149.109 213.949H135.738C136.586 210.617 139.141 208.559 142.465 208.559Z" fill="white"/>
</svg>
