<svg width="130" height="170" viewBox="0 0 130 170" fill="none" xmlns="http://www.w3.org/2000/svg">
<rect width="130" height="170" fill="#FF0000"/>
<path fill-rule="evenodd" clip-rule="evenodd" d="M65 123C47.08 123 33 109.125 33 89.5972V62.875L62.824 49V89.5972C62.824 92.9375 64.488 92.9375 65 92.9375C65.512 92.9375 67.176 92.9375 67.176 89.5972V49L79.976 54.9097V89.5972C79.976 99.1042 73.32 105.785 65 105.785C56.68 105.785 50.024 99.1042 50.024 89.5972V69.0417L45.8 71.0972V89.5972C45.8 101.674 54.12 110.153 65 110.153C75.88 110.153 84.2 101.674 84.2 89.5972V56.9653L97 62.875V89.5972C97 109.125 82.92 123 65 123ZM37.224 65.5729V89.5972C37.224 97.8194 39.912 103.986 45.032 109.767C50.28 115.549 57.32 118.632 65 118.632C72.68 118.632 79.72 115.549 84.968 109.767C90.088 103.986 92.776 97.8194 92.776 89.5972V65.5729L88.424 63.6458V89.5972C88.424 96.4062 85.736 102.187 81.64 106.812C77.288 111.694 71.4 114.392 65 114.392C58.6 114.392 52.712 111.694 48.36 106.812C44.264 102.187 41.576 96.4062 41.576 89.5972V68.2708L54.376 62.3611V89.5972C54.376 96.7917 58.856 101.545 65 101.545C71.144 101.545 75.624 96.7917 75.624 89.5972V57.6076L71.4 55.6806V89.5972C71.4 94.2222 68.712 97.3056 65 97.3056C61.288 97.3056 58.6 94.2222 58.6 89.5972V55.6806L37.224 65.5729Z" fill="white"/>
<path d="M21 141.978V135.189H24.5127V141.598C24.5127 143.354 25.5096 144.351 27.076 144.351H27.3134C28.9273 144.351 29.9242 143.354 29.9242 141.598V135.189H33.4369V141.978C33.4369 145.775 31.3008 147.816 27.3134 147.816H27.076C23.1361 147.816 21 145.775 21 141.978Z" fill="#FFECEC"/>
<path d="M45.3516 147.626L40.0825 140.459V147.626H36.5698V135.189H40.2249L45.4465 142.167V135.189H49.0067V147.626H45.3516Z" fill="#FFECEC"/>
<path fill-rule="evenodd" clip-rule="evenodd" d="M55.4151 145.585L54.8929 147.626H51.2378L54.5132 135.189H61.5386L64.8139 147.626H61.1588L60.6367 145.585H55.4151ZM56.222 142.405H59.7822L58.7379 138.322H57.2664L56.222 142.405Z" fill="#FFECEC"/>
<path d="M73.0259 138.323H72.9785C71.1272 138.323 69.8455 139.604 69.8455 141.408C69.8455 143.212 71.1272 144.494 72.9785 144.494H73.0259C74.3551 144.494 75.4943 143.734 75.969 142.5H79.7665C79.2919 145.728 76.6336 147.817 73.0259 147.817H72.9785C68.9436 147.817 66.1429 145.206 66.1429 141.408C66.1429 137.611 68.9436 135 72.9785 135H73.0259C76.6336 135 79.2919 137.041 79.7665 140.317H75.969C75.4943 139.082 74.3551 138.323 73.0259 138.323Z" fill="#FFECEC"/>
<path d="M85.9851 138.275V140.031H91.2067V142.784H85.9851V144.541H92.4409V147.626H82.4249V135.189H92.4409V138.275H85.9851Z" fill="#FFECEC"/>
<path d="M105.969 147.626V140.791L103.311 144.114H101.792L99.0864 140.791V147.626H95.5737V135.189H99.1814L102.552 139.746L105.874 135.189H109.53V147.626H105.969Z" fill="#FFECEC"/>
</svg>
