<svg width="338" height="90" viewBox="0 0 338 90" fill="none" xmlns="http://www.w3.org/2000/svg">
<g clip-path="url(#clip0_5_83)">
<path d="M15.375 10.8789L29.5547 25.0586C31.2891 23.7187 33.2031 22.5977 35.2539 21.7461L19.8828 6.37109L15.375 10.8789Z" fill="#14FF46"/>
<path d="M41.6328 0H35.2617V21.7422C37.2656 20.9141 39.4063 20.3398 41.6328 20.0547V0Z" fill="#14FF46"/>
<path d="M25.0547 29.5586L10.875 15.3789L6.36719 19.8828L21.7422 35.2578C22.5937 33.207 23.7148 31.293 25.0547 29.5586Z" fill="#14FF46"/>
<path d="M20.0508 48H0V54.375H21.7422C20.9102 52.3672 20.3359 50.2305 20.0508 48Z" fill="#14FF46"/>
<path d="M67.8867 35.2578L83.2617 19.8828L78.7539 15.3789L64.5742 29.5586C65.918 31.293 67.0352 33.207 67.8867 35.2578Z" fill="#14FF46"/>
<path d="M54.3711 0H47.9961V20.0547C50.2266 20.3398 52.3633 20.9141 54.3711 21.7422V0Z" fill="#14FF46"/>
<path d="M74.2539 10.8789L69.75 6.37109L54.375 21.7461C56.4297 22.5977 58.3437 23.7187 60.0742 25.0586L74.2539 10.8789Z" fill="#14FF46"/>
<path d="M21.7383 35.2617H0V41.6367H20.0508C20.3359 39.4062 20.9063 37.2695 21.7383 35.2617Z" fill="#14FF46"/>
<path d="M67.8906 54.375H89.6328V48H69.5781C69.2969 50.2305 68.7227 52.3672 67.8906 54.375Z" fill="#14FF46"/>
<path d="M64.5742 60.0781L78.7539 74.2578L83.2617 69.7539L67.8867 54.3789C67.0352 56.4336 65.918 58.3477 64.5742 60.0781Z" fill="#14FF46"/>
<path d="M54.375 67.8906L69.75 83.2656L74.2578 78.7578L60.0781 64.5781C58.3438 65.9219 56.4297 67.0391 54.375 67.8906Z" fill="#14FF46"/>
<path d="M67.8906 35.2617C68.7227 37.2695 69.2969 39.4062 69.5781 41.6367H89.6328V35.2617H67.8906Z" fill="#14FF46"/>
<path d="M21.7422 54.3789L6.36719 69.7539L10.875 74.2617L25.0547 60.0781C23.7148 58.3438 22.5937 56.4336 21.7422 54.3789Z" fill="#14FF46"/>
<path d="M47.9961 89.6367H54.3711V67.8945C52.3633 68.7266 50.2266 69.2969 47.9961 69.582V89.6367Z" fill="#14FF46"/>
<path d="M15.375 78.7578L19.8828 83.2656L35.2539 67.8906C33.2031 67.0391 31.2891 65.9219 29.5547 64.5781L15.375 78.7578Z" fill="#14FF46"/>
<path d="M56.6289 44.8203C56.6289 50.2266 52.9766 54.793 48.0078 56.1914V62.7188C56.5195 61.207 63.0039 53.7578 63.0039 44.8203C63.0039 34.7891 54.8438 26.6328 44.8164 26.6328C42.1172 26.6328 39.5234 27.207 37.1016 28.3438C37.1016 28.3438 36.2305 28.7344 35.2617 29.3398V89.6367H41.6328V33.4375C42.6602 33.1484 43.7227 33.0039 44.8164 33.0039C51.3281 33.0039 56.6289 38.3047 56.6289 44.8203Z" fill="#14FF46"/>
<path d="M159.68 38.6914C156.332 38.6914 153.043 40.2422 152.121 43.5938V38.6914H145.953V65.8281H152.391V51.668C152.391 47.332 154.609 45.1328 158.98 45.1328H161.746V38.6914H159.68Z" fill="white"/>
<path d="M238.801 38.6914C235.453 38.6914 232.164 40.2422 231.246 43.5938V38.6914H225.074V65.8281H231.516V51.668C231.516 47.332 233.73 45.1328 238.102 45.1328H240.867V38.6914H238.801Z" fill="white"/>
<path d="M177.582 38.1562C169.551 38.1562 163.262 44.3516 163.262 52.2578C163.262 60.168 169.551 66.3633 177.582 66.3633C185.578 66.3633 191.848 60.168 191.848 52.2578C191.848 44.3516 185.578 38.1562 177.582 38.1562ZM177.582 60.3008C173.016 60.3008 169.699 56.918 169.699 52.2578C169.699 47.6016 173.016 44.2188 177.582 44.2188C182.113 44.2188 185.406 47.6016 185.406 52.2578C185.406 56.918 182.113 60.3008 177.582 60.3008Z" fill="white"/>
<path d="M215.531 59.1484C218.176 56.9609 219.742 53.668 219.742 50.2734C219.742 47.8672 219.039 45.5547 217.711 43.5781L221.664 39.4648L217.508 35.3633L213.492 39.7578C211.605 38.6875 209.34 38.1016 207.09 38.1016C200.023 38.1016 194.488 43.4961 194.488 50.3789C194.488 56.7187 198.809 61.2734 205.77 62.2773L207.113 62.4375C211.723 63.043 213.52 64.2422 213.52 66.7188C213.52 69.3984 211.273 70.9961 207.52 70.9961C203.777 70.9961 201.645 69.6055 200.684 65.8281H194.219C195.094 73.4414 200.828 76.8438 207.625 76.8438C215.098 76.8438 220.117 72.8203 220.117 66.8281C220.117 63.4492 218.492 60.7344 215.531 59.1484ZM207.09 44.1641C210.633 44.1641 213.305 46.8125 213.305 50.3242C213.305 53.9258 210.711 56.5391 207.141 56.5391C203.543 56.5391 200.93 53.9687 200.93 50.4336C200.93 46.8008 203.52 44.1641 207.09 44.1641Z" fill="white"/>
<path d="M286.949 50.0391L284.477 49.6094C280.672 48.9727 279.516 48.2383 279.516 46.4531C279.516 44.25 281.723 43.4648 283.793 43.4648C286.781 43.4648 288.367 45.3359 288.609 47.1836L288.637 47.3906H295.109L295.102 47.1445C294.93 42.0195 290.094 38.1562 283.848 38.1562C277.566 38.1562 273.184 41.5703 273.184 46.4531C273.184 51.0508 275.699 53.4531 281.602 54.4805L284.078 54.9141C287.836 55.5312 288.984 56.2656 288.984 58.0664C288.984 59.9375 287.246 61.0547 284.328 61.0547C281.363 61.0547 279.383 59.6016 279.027 57.1719L279 56.9688H272.52L272.539 57.2188C272.879 62.6055 277.73 66.3633 284.328 66.3633C290.965 66.3633 295.426 63.0312 295.426 58.0664C295.426 53.5352 292.812 51.0586 286.949 50.0391Z" fill="white"/>
<path d="M312.281 38.1562C304.25 38.1562 297.961 44.3516 297.961 52.2578C297.961 60.168 304.25 66.3633 312.281 66.3633C320.281 66.3633 326.547 60.168 326.547 52.2578C326.547 44.3516 320.281 38.1562 312.281 38.1562ZM312.281 60.3008C307.715 60.3008 304.402 56.918 304.402 52.2578C304.402 47.6016 307.715 44.2188 312.281 44.2188C316.816 44.2188 320.105 47.6016 320.105 52.2578C320.105 56.918 316.816 60.3008 312.281 60.3008Z" fill="white"/>
<path d="M330.59 65.8281H337.027V28.2656H330.59V65.8281Z" fill="white"/>
<path d="M129.473 28.2656H115.906V65.8281H122.344V34.707H129.098C133.027 34.707 135.473 37.3828 135.473 41.2812C135.473 45.1836 133.027 47.8867 129.098 47.8867H124.492V54.3281H129.473C136.953 54.3281 142.18 48.7656 142.18 41.2812C142.18 33.8008 136.953 28.2656 129.473 28.2656Z" fill="white"/>
<path d="M263.082 56.9688C261.828 59.2969 259.375 60.6758 256.434 60.6758C252.391 60.6758 249.559 58.3086 248.812 54.3242H269.586L269.621 54.125C269.73 53.4609 269.73 52.7383 269.73 52.0977C269.73 44.0195 264.023 38.1562 256.164 38.1562C248.438 38.1562 242.383 44.3516 242.383 52.2578C242.383 60.168 248.555 66.3633 256.434 66.3633C262.465 66.3633 267.672 62.6797 269.758 56.9688H263.082ZM256.109 43.7891C259.824 43.7891 262.559 46.0195 263.145 49.4961H248.992C249.891 45.9687 252.594 43.7891 256.109 43.7891Z" fill="white"/>
</g>
<defs>
<clipPath id="clip0_5_83">
<rect width="338" height="90" fill="white"/>
</clipPath>
</defs>
</svg>
